# xmcd CD database file
#
# Track frame offsets:
#	150
#	10811
#	21608
#	30573
#	41037
#	54384
#	65902
#	78446
#	90622
#	101867
#	112363
#	122558
#	135062
#	146617
#
# Disc length: 2165 seconds
#
# Revision: 0
# Processed by: cddbd v1.5.2PL0 Copyright (c) Steve Scherf et al.
# Submitted via: CDex 1.70beta2
#
DISCID=c308730e
DTITLE=Dean Martin - My Kind of Christmas
DYEAR=2009
DGENRE=Christmas
TTITLE0=Baby Its Cold Outside
TTITLE1=Silver Bells
TTITLE2=Let it Snow. Let it Snow. Let it Snow
TTITLE3=Rudolph, The Red-Nosed Reindeer
TTITLE4=The Christmas Blues
TTITLE5=Winter Wonderland - The Swingin' Yuletide Mix
TTITLE6=Silent Night
TTITLE7=A Marshmallow World
TTITLE8=I'll Be Home For Christmas
TTITLE9=Jingle Bells
TTITLE10=Blue Christmas
TTITLE11=I've Got My Love To Keep Me Warm
TTITLE12=White Christmas
TTITLE13=Peace On Earth - Silent Night
EXTD=YEAR: 2009
EXTT0=
EXTT1=
EXTT2=
EXTT3=
EXTT4=
EXTT5=
EXTT6=
EXTT7=
EXTT8=
EXTT9=
EXTT10=
EXTT11=
EXTT12=
EXTT13=
PLAYORDER=
